<svg version="1.1" viewBox="0.0 0.0 122.249343832021 104.80839895013123" fill="none" stroke="none" stroke-linecap="square" stroke-miterlimit="10" xmlns:xlink="http://www.w3.org/1999/xlink" xmlns="http://www.w3.org/2000/svg"><clipPath id="p.0"><path d="m0 0l122.249344 0l0 104.808395l-122.249344 0l0 -104.808395z" clip-rule="nonzero"/></clipPath><g clip-path="url(#p.0)"><path fill="#ffffff" d="m0 0l122.249344 0l0 104.808395l-122.249344 0z" fill-rule="evenodd"/><path fill="#3c78d8" d="m39.042145 27.424656l0 0c1.5850296 -6.3624134 8.027702 -10.235249 14.390118 -8.650221l0 0c3.0553398 0.761158 5.6831703 2.7048702 7.305401 5.4035416c1.6222343 2.6986713 2.10598 5.93124 1.3448219 8.986578l0 0c-1.5850296 6.3624153 -8.027706 10.235252 -14.390121 8.650223l0 0c-6.3624153 -1.5850296 -10.235249 -8.027706 -8.650219 -14.390121z" fill-rule="evenodd"/><path stroke="#3c78d8" stroke-width="1.0" stroke-linejoin="round" stroke-linecap="butt" d="m39.042145 27.424656l0 0c1.5850296 -6.3624134 8.027702 -10.235249 14.390118 -8.650221l0 0c3.0553398 0.761158 5.6831703 2.7048702 7.305401 5.4035416c1.6222343 2.6986713 2.10598 5.93124 1.3448219 8.986578l0 0c-1.5850296 6.3624153 -8.027706 10.235252 -14.390121 8.650223l0 0c-6.3624153 -1.5850296 -10.235249 -8.027706 -8.650219 -14.390121z" fill-rule="evenodd"/><path fill="#ffffff" d="m40.191013 22.813023l23.040337 5.7399006l-5.7398987 23.040339l-23.04034 -5.7398987z" fill-rule="evenodd"/><path stroke="#ffffff" stroke-width="1.0" stroke-linejoin="round" stroke-linecap="butt" d="m40.191013 22.813023l23.040337 5.7399006l-5.7398987 23.040339l-23.04034 -5.7398987z" fill-rule="evenodd"/><path fill="#3c78d8" d="m58.19824 97.097115l0 0c0 -6.5578384 7.036495 -11.874016 15.71645 -11.874016l0 0c8.679955 0 15.716446 5.3161774 15.716446 11.874016l0 0c0 6.5578384 -7.0364914 11.874016 -15.716446 11.874016l0 0c-8.679955 0 -15.71645 -5.3161774 -15.71645 -11.874016z" fill-rule="evenodd"/><path stroke="#3c78d8" stroke-width="1.0" stroke-linejoin="round" stroke-linecap="butt" d="m58.19824 97.097115l0 0c0 -6.5578384 7.036495 -11.874016 15.71645 -11.874016l0 0c8.679955 0 15.716446 5.3161774 15.716446 11.874016l0 0c0 6.5578384 -7.0364914 11.874016 -15.716446 11.874016l0 0c-8.679955 0 -15.71645 -5.3161774 -15.71645 -11.874016z" fill-rule="evenodd"/><path fill="#ffffff" d="m57.602367 92.34646l32.058216 0l0 23.748032l-32.058216 0z" fill-rule="evenodd"/><path stroke="#ffffff" stroke-width="1.0" stroke-linejoin="round" stroke-linecap="butt" d="m57.602367 92.34646l32.058216 0l0 23.748032l-32.058216 0z" fill-rule="evenodd"/><path fill="#000000" fill-opacity="0.0" d="m15.833333 92.0538l90.58267 0" fill-rule="evenodd"/><path stroke="#3c78d8" stroke-width="1.0" stroke-linejoin="round" stroke-linecap="butt" d="m15.833333 92.0538l90.58267 0" fill-rule="evenodd"/><path fill="#000000" fill-opacity="0.0" d="m59.52518 25.067177l33.795277 21.889763" fill-rule="evenodd"/><path stroke="#3c78d8" stroke-width="2.0" stroke-linejoin="round" stroke-linecap="butt" d="m59.52518 25.067177l33.795277 21.889763" fill-rule="evenodd"/><path fill="#000000" fill-opacity="0.0" d="m91.326775 48.60105l-17.07087 37.984253" fill-rule="evenodd"/><path stroke="#3c78d8" stroke-width="2.0" stroke-linejoin="round" stroke-linecap="butt" d="m91.326775 48.60105l-17.07087 37.984253" fill-rule="evenodd"/><path fill="#3c78d8" d="m27.185045 43.62007c-1.0332012 -9.147617 4.206505 -17.848717 12.775011 -21.214289c8.568504 -3.365574 18.329258 -0.55641747 23.797844 6.8490505c5.468586 7.405464 5.2814217 17.560692 -0.45633698 24.759617z" fill-rule="evenodd"/><path stroke="#3c78d8" stroke-width="1.0" stroke-linejoin="round" stroke-linecap="butt" d="m27.185045 43.62007c-1.0332012 -9.147617 4.206505 -17.848717 12.775011 -21.214289c8.568504 -3.365574 18.329258 -0.55641747 23.797844 6.8490505c5.468586 7.405464 5.2814217 17.560692 -0.45633698 24.759617z" fill-rule="evenodd"/><path fill="#ffffff" d="m27.685314 43.164513l0 0c0.87843704 -3.896431 9.903248 -5.200798 20.157478 -2.9133835l0 0c10.254234 2.2874146 17.854816 7.300415 16.976383 11.19685l0 0c-0.87844086 3.8964348 -9.903252 5.200802 -20.157482 2.9133873l0 0c-10.254234 -2.2874184 -17.854816 -7.300419 -16.97638 -11.196854z" fill-rule="evenodd"/><path stroke="#3c78d8" stroke-width="2.0" stroke-linejoin="round" stroke-linecap="butt" d="m27.685314 43.164513l0 0c0.87843704 -3.896431 9.903248 -5.200798 20.157478 -2.9133835l0 0c10.254234 2.2874146 17.854816 7.300415 16.976383 11.19685l0 0c-0.87844086 3.8964348 -9.903252 5.200802 -20.157482 2.9133873l0 0c-10.254234 -2.2874184 -17.854816 -7.300419 -16.97638 -11.196854z" fill-rule="evenodd"/><path fill="#3c78d8" d="m87.137794 45.805775l0 0c0 -1.956913 1.607544 -3.5433083 3.5905533 -3.5433083l0 0c0.9522705 0 1.8655396 0.3733139 2.5389023 1.0378113c0.6733551 0.6644974 1.051651 1.5657539 1.051651 2.505497l0 0c0 1.956913 -1.6075516 3.5433083 -3.5905533 3.5433083l0 0c-1.9830093 0 -3.5905533 -1.5863953 -3.5905533 -3.5433083z" fill-rule="evenodd"/><path stroke="#3c78d8" stroke-width="1.0" stroke-linejoin="round" stroke-linecap="butt" d="m87.137794 45.805775l0 0c0 -1.956913 1.607544 -3.5433083 3.5905533 -3.5433083l0 0c0.9522705 0 1.8655396 0.3733139 2.5389023 1.0378113c0.6733551 0.6644974 1.051651 1.5657539 1.051651 2.505497l0 0c0 1.956913 -1.6075516 3.5433083 -3.5905533 3.5433083l0 0c-1.9830093 0 -3.5905533 -1.5863953 -3.5905533 -3.5433083z" fill-rule="evenodd"/></g></svg>